<?xml version="1.0" standalone="no"?>
<svg xmlns="http://www.w3.org/2000/svg" xmlns:xlink="http://www.w3.org/1999/xlink" width="786pt" height="431pt" viewBox="0.00 0.00 786.29 431.00">
<g id="graph0" class="graph" transform="translate(4,427) scale(1)" data-name="G">

<polygon fill="#2e3e56" stroke="transparent" points="-4,4 -4,-427 782.29,-427 782.29,4 -4,4" style=""/>
<g id="clust1" class="cluster" data-name="clusterTokenShop">

<path fill="#445773" stroke="#445773" d="M20,-93C20,-93 571.48,-93 571.48,-93 577.48,-93 583.48,-99 583.48,-105 583.48,-105 583.48,-266 583.48,-266 583.48,-272 577.48,-278 571.48,-278 571.48,-278 20,-278 20,-278 14,-278 8,-272 8,-266 8,-266 8,-105 8,-105 8,-99 14,-93 20,-93" style=""/>
<text text-anchor="middle" x="295.74" y="-261.4" font-family="Times,serif" font-size="14.00" fill="#f0f0f0" style="">TokenShop</text>
</g>
<g id="clust2" class="cluster" data-name="clusterAggregatorV3Interface">

<path fill="#3b4b63" stroke="#e8726d" stroke-dasharray="5,2" d="M615.48,-93C615.48,-93 758.29,-93 758.29,-93 764.29,-93 770.29,-99 770.29,-105 770.29,-105 770.29,-158 770.29,-158 770.29,-164 764.29,-170 758.29,-170 758.29,-170 615.48,-170 615.48,-170 609.48,-170 603.48,-164 603.48,-158 603.48,-158 603.48,-105 603.48,-105 603.48,-99 609.48,-93 615.48,-93" style=""/>
<text text-anchor="middle" x="686.88" y="-153.4" font-family="Times,serif" font-size="14.00" fill="#f0f0f0" style="">AggregatorV3Interface</text>
</g>
<g id="clust3" class="cluster" data-name="clusterconsole">

<path fill="#3b4b63" stroke="#e8726d" stroke-dasharray="5,2" d="M486.21,-8C486.21,-8 532.21,-8 532.21,-8 538.21,-8 544.21,-14 544.21,-20 544.21,-20 544.21,-73 544.21,-73 544.21,-79 538.21,-85 532.21,-85 532.21,-85 486.21,-85 486.21,-85 480.21,-85 474.21,-79 474.21,-73 474.21,-73 474.21,-20 474.21,-20 474.21,-14 480.21,-8 486.21,-8" style=""/>
<text text-anchor="middle" x="509.21" y="-68.4" font-family="Times,serif" font-size="14.00" fill="#f0f0f0" style="">console</text>
</g>
<g id="clust4" class="cluster" data-name="clusterTokenInterface">

<path fill="#3b4b63" stroke="#e8726d" stroke-dasharray="5,2" d="M267.08,-8C267.08,-8 344.57,-8 344.57,-8 350.57,-8 356.57,-14 356.57,-20 356.57,-20 356.57,-73 356.57,-73 356.57,-79 350.57,-85 344.57,-85 344.57,-85 267.08,-85 267.08,-85 261.08,-85 255.08,-79 255.08,-73 255.08,-73 255.08,-20 255.08,-20 255.08,-14 261.08,-8 267.08,-8" style=""/>
<text text-anchor="middle" x="305.82" y="-68.4" font-family="Times,serif" font-size="14.00" fill="#f0f0f0" style="">TokenInterface</text>
</g>
<g id="clust5" class="cluster" data-name="cluster_01">

<polygon fill="#2e3e56" stroke="black" points="19.35,-286 19.35,-415 340.82,-415 340.82,-286 19.35,-286" style=""/>
<text text-anchor="middle" x="180.09" y="-398.4" font-family="Times,serif" font-size="14.00" style="">Legend</text>
</g>
<!-- TokenShop.&lt;Constructor&gt; -->
<g id="node1" class="node" pointer-events="visible" data-name="TokenShop.&lt;Constructor&gt;">

<ellipse fill="#ff9797" stroke="#ff9797" stroke-width="3" cx="92.35" cy="-227" rx="67.55" ry="18" style=""/>
<text text-anchor="middle" x="92.35" y="-222.8" font-family="Times,serif" font-size="14.00" style="">&lt;Constructor&gt;</text>
</g>
<!-- TokenShop.TokenInterface -->
<g id="node6" class="node" pointer-events="visible" data-name="TokenShop.TokenInterface">

<ellipse fill="#edad56" stroke="#edad56" stroke-width="3" cx="305.82" cy="-173" rx="70.02" ry="18" style=""/>
<text text-anchor="middle" x="305.82" y="-168.8" font-family="Times,serif" font-size="14.00" style="">TokenInterface</text>
</g>
<!-- TokenShop.&lt;Constructor&gt;&#45;&gt;TokenShop.TokenInterface -->
<g id="edge1" class="edge" data-name="TokenShop.&lt;Constructor&gt;-&gt;TokenShop.TokenInterface">

<path fill="none" stroke="#1bc6a6" stroke-width="2" d="M141.6,-214.68C172.43,-206.81 212.61,-196.55 245.39,-188.18" style=""/>
<polygon fill="#1bc6a6" stroke="#1bc6a6" stroke-width="2" points="246.49,-191.51 255.31,-185.64 244.76,-184.73 246.49,-191.51" style=""/>
</g>
<!-- TokenShop.AggregatorV3Interface -->
<g id="node7" class="node" pointer-events="visible" data-name="TokenShop.AggregatorV3Interface">

<ellipse fill="#edad56" stroke="#edad56" stroke-width="3" cx="305.82" cy="-227" rx="101.24" ry="18" style=""/>
<text text-anchor="middle" x="305.82" y="-222.8" font-family="Times,serif" font-size="14.00" style="">AggregatorV3Interface</text>
</g>
<!-- TokenShop.&lt;Constructor&gt;&#45;&gt;TokenShop.AggregatorV3Interface -->
<g id="edge2" class="edge" data-name="TokenShop.&lt;Constructor&gt;-&gt;TokenShop.AggregatorV3Interface">

<path fill="none" stroke="#1bc6a6" stroke-width="2" d="M159.97,-227C170.93,-227 182.54,-227 194.22,-227" style=""/>
<polygon fill="#1bc6a6" stroke="#1bc6a6" stroke-width="2" points="194.5,-230.5 204.5,-227 194.5,-223.5 194.5,-230.5" style=""/>
</g>
<!-- TokenShop.getLatestPrice -->
<g id="node2" class="node" pointer-events="visible" data-name="TokenShop.getLatestPrice">

<ellipse fill="#ff9797" stroke="#ff9797" stroke-width="3" cx="509.21" cy="-119" rx="66.04" ry="18" style=""/>
<text text-anchor="middle" x="509.21" y="-114.8" font-family="Times,serif" font-size="14.00" style="">getLatestPrice</text>
</g>
<!-- AggregatorV3Interface.latestRoundData -->
<g id="node8" class="node" pointer-events="visible" data-name="AggregatorV3Interface.latestRoundData">

<ellipse fill="#edad56" stroke="#edad56" stroke-width="3" cx="686.88" cy="-119" rx="75.3" ry="18" style=""/>
<text text-anchor="middle" x="686.88" y="-114.8" font-family="Times,serif" font-size="14.00" style="">latestRoundData</text>
</g>
<!-- TokenShop.getLatestPrice&#45;&gt;AggregatorV3Interface.latestRoundData -->
<g id="edge3" class="edge" data-name="TokenShop.getLatestPrice-&gt;AggregatorV3Interface.latestRoundData">

<path fill="none" stroke="white" stroke-width="2" d="M575.63,-119C583.97,-119 592.6,-119 601.2,-119" style=""/>
<polygon fill="white" stroke="white" stroke-width="2" points="601.24,-122.5 611.24,-119 601.24,-115.5 601.24,-122.5" style=""/>
</g>
<!-- TokenShop.calculateTokens -->
<g id="node3" class="node" pointer-events="visible" data-name="TokenShop.calculateTokens">

<ellipse fill="#ff9797" stroke="#ff9797" stroke-width="3" cx="305.82" cy="-119" rx="73.55" ry="18" style=""/>
<text text-anchor="middle" x="305.82" y="-114.8" font-family="Times,serif" font-size="14.00" style="">calculateTokens</text>
</g>
<!-- TokenShop.calculateTokens&#45;&gt;TokenShop.getLatestPrice -->
<g id="edge4" class="edge" data-name="TokenShop.calculateTokens-&gt;TokenShop.getLatestPrice">

<path fill="none" stroke="#1bc6a6" stroke-width="2" d="M379.81,-119C397.03,-119 415.43,-119 432.75,-119" style=""/>
<polygon fill="#1bc6a6" stroke="#1bc6a6" stroke-width="2" points="432.82,-122.5 442.81,-119 432.81,-115.5 432.82,-122.5" style=""/>
</g>
<!-- console.log -->
<g id="node9" class="node" pointer-events="visible" data-name="console.log">

<ellipse fill="#edad56" stroke="#edad56" stroke-width="3" cx="509.21" cy="-34" rx="27" ry="18" style=""/>
<text text-anchor="middle" x="509.21" y="-29.8" font-family="Times,serif" font-size="14.00" style="">log</text>
</g>
<!-- TokenShop.calculateTokens&#45;&gt;console.log -->
<g id="edge5" class="edge" data-name="TokenShop.calculateTokens-&gt;console.log">

<path fill="none" stroke="white" stroke-width="2" d="M357.44,-106.04C373.51,-101.34 391.19,-95.55 406.94,-89 432.62,-78.32 460.26,-63.02 480.17,-51.27" style=""/>
<polygon fill="white" stroke="white" stroke-width="2" points="482.22,-54.12 489.01,-45.99 478.63,-48.11 482.22,-54.12" style=""/>
</g>
<!-- TokenShop.pay -->
<g id="node4" class="node" pointer-events="visible" data-name="TokenShop.pay">

<ellipse fill="#ffbdb9" stroke="brown" stroke-width="3" cx="92.35" cy="-173" rx="27" ry="18" style=""/>
<text text-anchor="middle" x="92.35" y="-168.8" font-family="Times,serif" font-size="14.00" style="">pay</text>
</g>
<!-- TokenShop.pay&#45;&gt;TokenShop.calculateTokens -->
<g id="edge6" class="edge" data-name="TokenShop.pay-&gt;TokenShop.calculateTokens">

<path fill="none" stroke="#1bc6a6" stroke-width="2" d="M118.03,-166.7C148.79,-158.84 202.43,-145.15 244.37,-134.44" style=""/>
<polygon fill="#1bc6a6" stroke="#1bc6a6" stroke-width="2" points="245.38,-137.79 254.21,-131.92 243.65,-131.01 245.38,-137.79" style=""/>
</g>
<!-- TokenInterface.mint -->
<g id="node10" class="node" pointer-events="visible" data-name="TokenInterface.mint">

<ellipse fill="#edad56" stroke="#edad56" stroke-width="3" cx="305.82" cy="-34" rx="28.99" ry="18" style=""/>
<text text-anchor="middle" x="305.82" y="-29.8" font-family="Times,serif" font-size="14.00" style="">mint</text>
</g>
<!-- TokenShop.pay&#45;&gt;TokenInterface.mint -->
<g id="edge7" class="edge" data-name="TokenShop.pay-&gt;TokenInterface.mint">

<path fill="none" stroke="white" stroke-width="2" d="M118.48,-168.38C134.21,-164.5 154.18,-157.65 168.71,-146 192.08,-127.26 182.88,-109.53 204.71,-89 224.03,-70.82 250.51,-56.62 271.38,-47.2" style=""/>
<polygon fill="white" stroke="white" stroke-width="2" points="273.05,-50.29 280.82,-43.09 270.26,-43.87 273.05,-50.29" style=""/>
</g>
<!-- TokenShop.&lt;Receive Ether&gt; -->
<g id="node5" class="node" pointer-events="visible" data-name="TokenShop.&lt;Receive Ether&gt;">

<ellipse fill="#ffbdb9" stroke="brown" stroke-width="3" cx="92.35" cy="-119" rx="76.21" ry="18" style=""/>
<text text-anchor="middle" x="92.35" y="-114.8" font-family="Times,serif" font-size="14.00" style="">&lt;Receive Ether&gt;</text>
</g>
<!-- TokenShop.&lt;Receive Ether&gt;&#45;&gt;TokenShop.calculateTokens -->
<g id="edge8" class="edge" data-name="TokenShop.&lt;Receive Ether&gt;-&gt;TokenShop.calculateTokens">

<path fill="none" stroke="#1bc6a6" stroke-width="2" d="M168.8,-119C185.96,-119 204.27,-119 221.72,-119" style=""/>
<polygon fill="#1bc6a6" stroke="#1bc6a6" stroke-width="2" points="221.88,-122.5 231.88,-119 221.88,-115.5 221.88,-122.5" style=""/>
</g>
<!-- TokenShop.&lt;Receive Ether&gt;&#45;&gt;TokenInterface.mint -->
<g id="edge9" class="edge" data-name="TokenShop.&lt;Receive Ether&gt;-&gt;TokenInterface.mint">

<path fill="none" stroke="white" stroke-width="2" d="M132.14,-103.41C172.09,-87.35 233.71,-62.59 271.52,-47.39" style=""/>
<polygon fill="white" stroke="white" stroke-width="2" points="273.08,-50.53 281.06,-43.55 270.47,-44.04 273.08,-50.53" style=""/>
</g>
<!-- key -->
<g id="node11" class="node" pointer-events="visible" data-name="key">

<polygon fill="#edad56" stroke="transparent" stroke-width="3" points="157.35,-382 27.35,-382 27.35,-294 157.35,-294 157.35,-382" style=""/>
<text text-anchor="start" x="76.99" y="-363.4" font-family="Times,serif" font-size="14.00" style="">Internal Call</text>
<text text-anchor="start" x="73.1" y="-343.4" font-family="Times,serif" font-size="14.00" style="">External Call</text>
<text text-anchor="start" x="50.56" y="-323.4" font-family="Times,serif" font-size="14.00" style="">Defined Contract</text>
<text text-anchor="start" x="36.95" y="-303.4" font-family="Times,serif" font-size="14.00" style="">Undefined Contract</text>
</g>
<!-- key2 -->
<g id="node12" class="node" pointer-events="visible" data-name="key2">

<polygon fill="#edad56" stroke="transparent" stroke-width="3" points="332.82,-382 278.82,-382 278.82,-294 332.82,-294 332.82,-382" style=""/>
<text text-anchor="start" x="295.82" y="-363.4" font-family="Times,serif" font-size="14.00" style="">   </text>
<text text-anchor="start" x="295.82" y="-343.4" font-family="Times,serif" font-size="14.00" style="">   </text>
<polygon fill="#445773" stroke="transparent" points="293.82,-318 293.82,-338 318.82,-338 318.82,-318 293.82,-318" style=""/>
<text text-anchor="start" x="295.82" y="-323.4" font-family="Times,serif" font-size="14.00" style="">   </text>
<polygon fill="none" stroke="#e8726d" points="295.82,-300 295.82,-316 316.82,-316 316.82,-300 295.82,-300" style=""/>
</g>
<!-- key&#45;&gt;key2 -->
<g id="edge10" class="edge" data-name="key-&gt;key2">

<path fill="none" stroke="#1bc6a6" stroke-width="2" d="M150.35,-368C210.09,-368 227.56,-368 282.5,-368" style=""/>
<polygon fill="#1bc6a6" stroke="#1bc6a6" stroke-width="2" points="282.82,-371.5 292.82,-368 282.82,-364.5 282.82,-371.5" style=""/>
</g>
<!-- key&#45;&gt;key2 -->
<g id="edge11" class="edge" data-name="key-&gt;key2">

<path fill="none" stroke="white" stroke-width="2" d="M150.35,-348C210.09,-348 227.56,-348 282.5,-348" style=""/>
<polygon fill="white" stroke="white" stroke-width="2" points="282.82,-351.5 292.82,-348 282.82,-344.5 282.82,-351.5" style=""/>
</g>
</g>
</svg>